<svg version="1.0" id="Layer_1" xmlns="http://www.w3.org/2000/svg" xmlns:xlink="http://www.w3.org/1999/xlink" x="0px" y="0px"
	 width="16" height="16" viewBox="0 0 100 100" enable-background="new 0 0 100 100" xml:space="preserve">
<path d="M83.333,10H16.667C13.001,10,10,13.001,10,16.667v66.666C10,86.999,13.001,90,16.667,90h66.666
	C86.999,90,90,86.999,90,83.333V16.667C90,13.001,86.999,10,83.333,10z M39.011,68.174l-5.678,3.493L20,50l13.333-21.667
	l5.678,3.496L27.825,50L39.011,68.174z M66.667,71.667l-5.678-3.496L72.175,50L60.989,31.826l5.678-3.493L80,50L66.667,71.667z"/>
</svg>
